<?xml version="1.0"?>
<svg xmlns="http://www.w3.org/2000/svg" xmlns:xlink="http://www.w3.org/1999/xlink" xmlns:svgjs="http://svgjs.com/svgjs" version="1.1" width="512" height="512" x="0" y="0" viewBox="0 0 512 512" style="enable-background:new 0 0 512 512" xml:space="preserve" class=""><g><link type="text/css" rel="stylesheet" id="dark-mode-custom-link"/><link type="text/css" rel="stylesheet" id="dark-mode-general-link"/><style lang="en" type="text/css" id="dark-mode-custom-style"/><style lang="en" type="text/css" id="dark-mode-native-style"/><g xmlns="http://www.w3.org/2000/svg"><path d="m381.707 150.625h-251.414c-22.011 0-39.918 17.907-39.918 39.918v20.332l49.125 15-49.125 15v80.582c0 22.011 17.907 39.918 39.918 39.918h251.413c22.011 0 39.918-17.907 39.918-39.918v-80.582l-38.125-15 38.125-15v-20.332c.001-22.011-17.906-39.918-39.917-39.918z" fill="#19b129" data-original="#4c97ec" style="" class=""/><path d="m381.707 150.625h-125.707v210.75h125.707c22.011 0 39.918-17.907 39.918-39.918v-80.582l-38.125-15 38.125-15v-20.332c0-22.011-17.907-39.918-39.918-39.918z" fill="#077613" data-original="#0474cd" style="" class=""/><path d="m90.375 210.875h331.25v30h-331.25z" fill="#384949" data-original="#384949" style="" class=""/><path d="m256 210.875h165.625v30h-165.625z" fill="#283939" data-original="#283939" style="" class=""/><path d="m437.02 74.98c-48.353-48.351-112.64-74.98-181.02-74.98s-132.667 26.629-181.02 74.98c-48.351 48.353-74.98 112.64-74.98 181.02s26.629 132.667 74.98 181.02c48.353 48.351 112.64 74.98 181.02 74.98s132.667-26.629 181.02-74.98c48.351-48.353 74.98-112.64 74.98-181.02s-26.629-132.667-74.98-181.02zm-407.02 181.02c0-56.922 21.162-108.989 56.02-148.768l318.748 318.748c-39.779 34.858-91.846 56.02-148.768 56.02-124.617 0-226-101.383-226-226zm395.98 148.768-318.748-318.748c39.779-34.858 91.846-56.02 148.768-56.02 124.617 0 226 101.383 226 226 0 56.922-21.162 108.989-56.02 148.768z" fill="#fe7789" data-original="#fe7789" style="" class=""/><path d="m482 256c0 56.922-21.162 108.989-56.02 148.768l-169.98-169.981v42.426l148.768 148.767c-39.779 34.858-91.846 56.02-148.768 56.02v30c68.38 0 132.667-26.629 181.02-74.98 48.351-48.353 74.98-112.64 74.98-181.02s-26.629-132.667-74.98-181.02c-48.353-48.351-112.64-74.98-181.02-74.98v30c124.617 0 226 101.383 226 226z" fill="#ff425b" data-original="#ff425b" style="" class=""/></g></g></svg>
