<?xml version="1.0"?>
<svg xmlns="http://www.w3.org/2000/svg" xmlns:xlink="http://www.w3.org/1999/xlink" xmlns:svgjs="http://svgjs.com/svgjs" version="1.1" width="512" height="512" x="0" y="0" viewBox="0 0 480 480" style="enable-background:new 0 0 512 512" xml:space="preserve" class=""><g><link type="text/css" rel="stylesheet" id="dark-mode-custom-link"/><link type="text/css" rel="stylesheet" id="dark-mode-general-link"/><style lang="en" type="text/css" id="dark-mode-custom-style"/><style lang="en" type="text/css" id="dark-mode-native-style"/>
<path xmlns="http://www.w3.org/2000/svg" style="" d="M440,168v-32v-32h-16V72V40V8H280v32v32v32h16v32v32v32h-16h-80v-32v-32v-32h-16V72V40V8H40v32v32v32  h16v32v32v32H8v224h464V200h-32V168z M240,384c-35.344,0-64-28.656-64-64s28.656-64,64-64s64,28.656,64,64S275.344,384,240,384z" fill="#ededed" data-original="#ededed" class=""/>
<polygon xmlns="http://www.w3.org/2000/svg" style="" points="184,72 184,104 200,104 200,136 200,168 200,200 280,200 296,200 296,168 296,136 296,104   280,104 280,72 280,40 280,8 184,8 184,40 " fill="#28b931" data-original="#71cbea" class=""/>
<path xmlns="http://www.w3.org/2000/svg" style="" d="M8,440c0,17.672,14.328,32,32,32h400c17.672,0,32-14.328,32-32v-16H8V440z" fill="#05bf11" data-original="#d84444" class=""/>
<circle xmlns="http://www.w3.org/2000/svg" style="" cx="240" cy="320" r="64" fill="#74d57a" data-original="#12addd" class=""/>
<g xmlns="http://www.w3.org/2000/svg">
	<path style="" d="M472,192h-24v-24v-32v-32c0-4.424-3.576-8-8-8h-8V72V40V8c0-4.424-3.576-8-8-8H280h-96H40   c-4.424,0-8,3.576-8,8v32v32v32c0,4.424,3.576,8,8,8h8v24v32v24H8c-4.424,0-8,3.576-8,8v240c0,22.056,17.944,40,40,40h400   c22.056,0,40-17.944,40-40V200C480,195.576,476.424,192,472,192z M208,192v-24v-32v-24h72h8v24v32v24H208z M64,144h128v16H64V144z    M56,96h-8V80h128v16H56z M176,64H48V48h128V64z M416,64H288V48h128V64z M424,112h8v16H304v-16H424z M304,144h128v16H304V144z    M304,176h128v16H304V176z M296,96h-8V80h128v16H296z M416,32H288V16h128V32z M272,40v32v24h-72h-8V72V40V16h80V40z M48,16h128v16   H48V16z M184,112h8v16H64v-16H184z M64,176h128v16H64V176z M56,208h144h96h144h24v208H16V208H56z M440,464H40   c-13.232,0-24-10.768-24-24v-8h448v8C464,453.232,453.232,464,440,464z" fill="#2d2d2d" data-original="#2d2d2d" class=""/>
	<path style="" d="M240,392c39.704,0,72-32.296,72-72s-32.296-72-72-72s-72,32.296-72,72S200.296,392,240,392z    M296,320c0,28.152-20.912,51.456-48,55.36v-16.832c9.288-3.312,16-12.112,16-22.528c0-2.128-0.84-4.16-2.344-5.656l-29.152-29.152   c1.144-3.024,4.072-5.192,7.496-5.192c4.416,0,8,3.584,8,8h16c0-10.416-6.712-19.216-16-22.528V264.64   C275.088,268.544,296,291.848,296,320z M232,264.64v16.832c-9.288,3.312-16,12.112-16,22.528c0,2.128,0.84,4.16,2.344,5.656   l29.152,29.152C246.352,341.832,243.424,344,240,344c-4.416,0-8-3.584-8-8h-16c0,10.416,6.712,19.216,16,22.528v16.832   c-27.088-3.904-48-27.208-48-55.36S204.912,268.544,232,264.64z" fill="#2d2d2d" data-original="#2d2d2d" class=""/>
	<rect x="328" y="312" style="" width="40" height="16" fill="#2d2d2d" data-original="#2d2d2d" class=""/>
	<rect x="112" y="312" style="" width="40" height="16" fill="#2d2d2d" data-original="#2d2d2d" class=""/>
	<rect x="312" y="264" style="" width="56" height="16" fill="#2d2d2d" data-original="#2d2d2d" class=""/>
	<rect x="112" y="264" style="" width="56" height="16" fill="#2d2d2d" data-original="#2d2d2d" class=""/>
	<rect x="312" y="360" style="" width="56" height="16" fill="#2d2d2d" data-original="#2d2d2d" class=""/>
	<rect x="112" y="360" style="" width="56" height="16" fill="#2d2d2d" data-original="#2d2d2d" class=""/>
	<path style="" d="M408,251.312V336h16v-84.688l18.344,18.344l11.312-11.312l-32-32c-3.128-3.128-8.184-3.128-11.312,0   l-32,32l11.312,11.312L408,251.312z" fill="#2d2d2d" data-original="#2d2d2d" class=""/>
	<path style="" d="M56,251.312V336h16v-84.688l18.344,18.344l11.312-11.312l-32-32c-3.128-3.128-8.184-3.128-11.312,0   l-32,32l11.312,11.312L56,251.312z" fill="#2d2d2d" data-original="#2d2d2d" class=""/>
	<rect x="408" y="352" style="" width="16" height="16" fill="#2d2d2d" data-original="#2d2d2d" class=""/>
	<rect x="408" y="384" style="" width="16" height="16" fill="#2d2d2d" data-original="#2d2d2d" class=""/>
	<rect x="56" y="352" style="" width="16" height="16" fill="#2d2d2d" data-original="#2d2d2d" class=""/>
	<rect x="56" y="384" style="" width="16" height="16" fill="#2d2d2d" data-original="#2d2d2d" class=""/>
</g>
<g xmlns="http://www.w3.org/2000/svg">
</g>
<g xmlns="http://www.w3.org/2000/svg">
</g>
<g xmlns="http://www.w3.org/2000/svg">
</g>
<g xmlns="http://www.w3.org/2000/svg">
</g>
<g xmlns="http://www.w3.org/2000/svg">
</g>
<g xmlns="http://www.w3.org/2000/svg">
</g>
<g xmlns="http://www.w3.org/2000/svg">
</g>
<g xmlns="http://www.w3.org/2000/svg">
</g>
<g xmlns="http://www.w3.org/2000/svg">
</g>
<g xmlns="http://www.w3.org/2000/svg">
</g>
<g xmlns="http://www.w3.org/2000/svg">
</g>
<g xmlns="http://www.w3.org/2000/svg">
</g>
<g xmlns="http://www.w3.org/2000/svg">
</g>
<g xmlns="http://www.w3.org/2000/svg">
</g>
<g xmlns="http://www.w3.org/2000/svg">
</g>
</g></svg>
