<?xml version="1.0"?>
<svg xmlns="http://www.w3.org/2000/svg" xmlns:xlink="http://www.w3.org/1999/xlink" xmlns:svgjs="http://svgjs.com/svgjs" version="1.1" width="512" height="512" x="0" y="0" viewBox="0 0 480 480" style="enable-background:new 0 0 512 512" xml:space="preserve" class=""><g><link type="text/css" rel="stylesheet" id="dark-mode-custom-link"/><link type="text/css" rel="stylesheet" id="dark-mode-general-link"/><style lang="en" type="text/css" id="dark-mode-custom-style"/><style lang="en" type="text/css" id="dark-mode-native-style"/><path xmlns="http://www.w3.org/2000/svg" d="m456.558594 323.28125c-18.992188-50.101562-66.976563-83.25-120.558594-83.28125-7.972656-.03125-15.933594.71875-23.761719 2.238281-13.199219 27.945313-41.335937 45.765625-72.238281 45.761719 71.160156.039062 128.839844 57.71875 128.878906 128.878906-.019531 5.589844-.367187 11.171875-1.039062 16.722656 40.332031-26.648437 71.347656-65.210937 88.71875-110.320312zm0 0" fill="#19b10c" data-original="#78b9eb" style="" class=""/><path xmlns="http://www.w3.org/2000/svg" d="m272 408c0 17.671875-14.328125 32-32 32s-32-14.328125-32-32 14.328125-32 32-32 32 14.328125 32 32zm0 0" fill="#19b10c" data-original="#78b9eb" style="" class=""/><path xmlns="http://www.w3.org/2000/svg" d="m112.160156 433.601562c-.671875-5.550781-1.019531-11.132812-1.039062-16.722656.027344-69.484375 55.113281-126.445312 124.558594-128.800781.007812-.058594.035156-.113281.082031-.15625-29.335938-1.589844-55.441407-19.125-68-45.683594-7.828125-1.519531-15.789063-2.269531-23.761719-2.238281-53.582031.03125-101.566406 33.179688-120.558594 83.28125 17.371094 45.109375 48.386719 83.671875 88.71875 110.320312zm0 0" fill="#19b10c" data-original="#78b9eb" style="" class=""/><g xmlns="http://www.w3.org/2000/svg" fill="#1a6fb0"><path d="m240 0c-132.546875 0-240 107.453125-240 240s107.453125 240 240 240 240-107.453125 240-240c-.148438-132.484375-107.515625-239.851562-240-240zm-207.878906 323.289062c18.660156-45.394531 62.800781-75.097656 111.878906-75.289062 6.183594.023438 12.355469.542969 18.457031 1.542969 8.441407 15.644531 21.394531 28.382812 37.175781 36.570312-57.527343 17.484375-96.761718 70.644531-96.511718 130.765625v.257813c-31.570313-24.4375-56.074219-56.824219-71-93.847657zm240.464844-196.960937c17.101562-32.730469 56.140624-47.285156 90.496093-33.738281 34.359375 13.542968 52.960938 50.824218 43.128907 86.417968-9.832032 35.597657-44.933594 58.042969-81.371094 52.03125 11.917968-43.128906-10.625-88.300781-52.253906-104.710937zm39.414062 81.671875c0 39.765625-32.234375 72-72 72s-72-32.234375-72-72 32.234375-72 72-72c39.746094.042969 71.957031 32.253906 72 72zm-160 0c.023438 7.785156 1.085938 15.535156 3.160156 23.039062-36.273437 5.824219-71.109375-16.59375-80.839844-52.019531-9.730468-35.421875 8.769532-72.492187 42.925782-86.015625 34.15625-13.519531 73.015625.839844 90.167968 33.324219-33.421874 13.347656-55.363281 45.683594-55.414062 81.671875zm208.238281 220.800781c-73.304687 46.875-167.171875 46.875-240.476562 0-.386719-4.144531-.640625-8.136719-.640625-11.960937-.277344-65.355469 51.660156-118.984375 116.992187-120.800782 1.292969-.039062 2.597657-.039062 3.886719-.039062 66.730469.074219 120.804688 54.152344 120.878906 120.878906 0 3.824219-.253906 7.816406-.640625 11.960938zm16.632813-11.703125v-.21875c-.074219-60.007812-39.164063-112.996094-96.480469-130.78125 15.769531-8.183594 28.714844-20.917968 37.152344-36.554687 6.101562-1 12.273437-1.519531 18.457031-1.542969 49.078125.191406 93.21875 29.894531 111.878906 75.289062-14.929687 37.023438-39.4375 69.414063-71.007812 93.847657zm-.605469-178.9375c34.039063-17.515625 52.84375-55.039062 46.492187-92.792968-6.347656-37.753907-36.390624-67.066407-74.292968-72.480469-37.898438-5.417969-74.945313 14.304687-91.617188 48.769531-11.125-2.207031-22.570312-2.207031-33.695312 0-16.664063-34.476562-53.722656-54.210938-91.628906-48.796875-37.910157 5.414063-67.960938 34.730469-74.308594 72.496094-6.347656 37.761719 12.464844 75.292969 46.519531 92.804687-33.449219 10.410156-61.691406 33.144532-79.007813 63.601563-26.304687-91.464844 8.050782-189.5625 85.675782-244.625s181.570312-55.0625 259.195312 0 111.980469 153.160156 85.675782 244.625c-17.316407-30.457031-45.558594-53.191407-79.007813-63.601563zm0 0" fill="#0a3210" data-original="#1a6fb0" style="" class=""/><path d="m216 312h48v16h-48zm0 0" fill="#0a3210" data-original="#1a6fb0" style="" class=""/><path d="m248 368.800781v-16.800781h-16v16.800781c-20.121094 4.105469-33.863281 22.78125-31.796875 43.210938 2.0625 20.429687 19.261719 35.980469 39.796875 35.980469s37.734375-15.550782 39.796875-35.980469c2.066406-20.429688-11.675781-39.105469-31.796875-43.210938zm-8 63.199219c-11.675781.023438-21.664062-8.378906-23.644531-19.886719-1.976563-11.507812 4.632812-22.761719 15.644531-26.640625v22.527344h16v-22.527344c11.011719 3.878906 17.621094 15.132813 15.644531 26.640625-1.980469 11.507813-11.96875 19.910157-23.644531 19.886719zm0 0" fill="#0a3210" data-original="#1a6fb0" style="" class=""/><path d="m256 176h16v16h-16zm0 0" fill="#0a3210" data-original="#1a6fb0" style="" class=""/><path d="m208 176h16v16h-16zm0 0" fill="#0a3210" data-original="#1a6fb0" style="" class=""/><path d="m352 128h16v16h-16zm0 0" fill="#0a3210" data-original="#1a6fb0" style="" class=""/><path d="m304 128h16v16h-16zm0 0" fill="#0a3210" data-original="#1a6fb0" style="" class=""/><path d="m112 128h16v16h-16zm0 0" fill="#0a3210" data-original="#1a6fb0" style="" class=""/><path d="m160 128h16v16h-16zm0 0" fill="#0a3210" data-original="#1a6fb0" style="" class=""/><path d="m328 416h16v16h-16zm0 0" fill="#0a3210" data-original="#1a6fb0" style="" class=""/><path d="m304 416h16v16h-16zm0 0" fill="#0a3210" data-original="#1a6fb0" style="" class=""/><path d="m328 392h16v16h-16zm0 0" fill="#0a3210" data-original="#1a6fb0" style="" class=""/><path d="m408 336h16v16h-16zm0 0" fill="#0a3210" data-original="#1a6fb0" style="" class=""/><path d="m384 336h16v16h-16zm0 0" fill="#0a3210" data-original="#1a6fb0" style="" class=""/><path d="m408 312h16v16h-16zm0 0" fill="#0a3210" data-original="#1a6fb0" style="" class=""/><path d="m56 336h16v16h-16zm0 0" fill="#0a3210" data-original="#1a6fb0" style="" class=""/><path d="m80 336h16v16h-16zm0 0" fill="#0a3210" data-original="#1a6fb0" style="" class=""/><path d="m56 312h16v16h-16zm0 0" fill="#0a3210" data-original="#1a6fb0" style="" class=""/></g></g></svg>
